# xmcd
#
# Track frame offsets: 
#        150
#        7504
#        27297
#        47105
#        64706
#        81276
#        96182
#        117919
#        137354
#        160341
#
# Disc length: 2414 seconds
#
# Revision: 0
# Processed by: cddbd v1.5.2PL0 Copyright (c) Steve Scherf et al.
# Submitted via: ExactAudioCopy v1.0b2
#
DISCID=71096c0a
DTITLE=KO-ney - ONE PLATE
DYEAR=2011
DGENRE=Hip-Hop
TTITLE0=Opening
TTITLE1=KO-ney feat. 普通/FUTOO - footmark on the loop
TTITLE2=KO-ney feat.DEJI,Ciger - Me.Ka.Ke
TTITLE3=KO-ney feat. The Grasshopper Set - 会心のLaugh
TTITLE4=KO-ney feat. たかほ,たまちゃん - ゲッビジ凸
TTITLE5=KO-ney feat. イエロウナイフ - Lighthouse Keepin
TTITLE6=パッド叩きスト(Ain't No Sequence)
TTITLE7=KO-ney feat. funk-K,MACHEE DEF,monkface,ATOM,DJ SHOTO - Capita
TTITLE7=l King Posse
TTITLE8=KO-ney feat. オトノ葉エンターテイメント - 顔面☆DISCO
TTITLE9=KO-ney feat. uzura - 昨日ノ事
EXTD=
EXTT0=
EXTT1=
EXTT2=
EXTT3=
EXTT4=
EXTT5=
EXTT6=
EXTT7=
EXTT8=
EXTT9=
PLAYORDER=
